<svg width="85" height="85" viewBox="0 0 85 85" fill="none" xmlns="http://www.w3.org/2000/svg">
<path d="M42.5 80.6084C38.6395 80.6084 34.8145 79.4751 31.8041 77.2438L16.575 65.8751C12.5375 62.8647 9.38538 56.5605 9.38538 51.5668V25.2168C9.38538 19.7626 13.3875 13.9543 18.5229 12.0418L36.1958 5.41885C39.702 4.10843 45.227 4.10843 48.7333 5.41885L66.4062 12.0418C71.5416 13.9543 75.5437 19.7626 75.5437 25.2168V51.5313C75.5437 56.5605 72.3916 62.8293 68.3541 65.8397L53.125 77.2084C50.1854 79.4751 46.3604 80.6084 42.5 80.6084ZM38.0729 10.4126L20.4 17.0355C17.3895 18.1688 14.7333 21.9938 14.7333 25.2522V51.5668C14.7333 54.9313 17.1062 59.6418 19.7625 61.6251L34.9916 72.9938C39.0645 76.0397 45.9354 76.0397 50.0437 72.9938L65.2729 61.6251C67.9646 59.6063 70.3021 54.9313 70.3021 51.5668V25.2168C70.3021 21.9938 67.6458 18.1688 64.6354 17.0001L46.9625 10.3772C44.5541 9.52718 40.4458 9.52718 38.0729 10.4126Z" fill="#292D32"/>
<path d="M37.7541 50.398C37.0812 50.398 36.4083 50.1501 35.8771 49.6189L30.175 43.9168C29.1479 42.8897 29.1479 41.1897 30.175 40.1626C31.2021 39.1355 32.9021 39.1355 33.9291 40.1626L37.7541 43.9876L51.1062 30.6355C52.1333 29.6085 53.8333 29.6085 54.8604 30.6355C55.8875 31.6626 55.8875 33.3626 54.8604 34.3897L39.6312 49.6189C39.1 50.1501 38.4271 50.398 37.7541 50.398Z" fill="#FFD200"/>
</svg>
