<svg width="85" height="85" viewBox="0 0 85 85" fill="none" xmlns="http://www.w3.org/2000/svg">
<path d="M57.6583 78.2708H44.1999C42.2166 78.2708 37.8958 77.6687 35.5937 75.3667L24.8624 67.0792L28.1208 62.8646L39.0999 71.3646C39.9854 72.2146 42.2166 72.9229 44.1999 72.9229H57.6583C60.8458 72.9229 64.2812 70.3729 64.9895 67.5042L73.5604 41.4729C74.127 39.9146 74.0208 38.4979 73.277 37.4708C72.4979 36.3729 71.0812 35.7354 69.3458 35.7354H55.1791C53.3374 35.7354 51.6374 34.9562 50.4687 33.6104C49.2645 32.2292 48.7333 30.3875 49.0166 28.475L50.7874 17.1062C51.2124 15.1229 49.8666 12.8917 47.9541 12.2542C46.2187 11.6167 43.9874 12.5375 43.2083 13.6708L28.6874 35.275L24.2958 32.3354L38.8166 10.7312C41.0479 7.40207 45.9354 5.80832 49.7604 7.2604C54.1874 8.71248 57.0208 13.6 56.0291 18.1333L54.2937 29.2896C54.2583 29.5375 54.2583 29.8917 54.5062 30.175C54.6833 30.3521 54.9312 30.4583 55.2145 30.4583H69.3812C72.852 30.4583 75.8624 31.9104 77.6333 34.425C79.3687 36.8687 79.7229 40.0917 78.5895 43.2083L70.1249 68.9917C68.8145 74.1271 63.3604 78.2708 57.6583 78.2708Z" fill="#292D32"/>
<path d="M19.0542 74.3749H15.5125C8.96045 74.3749 5.77295 71.2937 5.77295 64.9895V30.2812C5.77295 23.977 8.96045 20.8958 15.5125 20.8958H19.0542C25.6063 20.8958 28.7938 23.977 28.7938 30.2812V64.9895C28.7938 71.2937 25.6063 74.3749 19.0542 74.3749ZM15.5125 26.2083C11.6521 26.2083 11.0854 27.1291 11.0854 30.2812V64.9895C11.0854 68.1416 11.6521 69.0624 15.5125 69.0624H19.0542C22.9146 69.0624 23.4813 68.1416 23.4813 64.9895V30.2812C23.4813 27.1291 22.9146 26.2083 19.0542 26.2083H15.5125Z" fill="#FFD200"/>
</svg>
