<svg width="85" height="85" viewBox="0 0 85 85" fill="none" xmlns="http://www.w3.org/2000/svg">
<path d="M28.3334 20.3645C26.8813 20.3645 25.6771 19.1603 25.6771 17.7083V7.08325C25.6771 5.63117 26.8813 4.427 28.3334 4.427C29.7855 4.427 30.9896 5.63117 30.9896 7.08325V17.7083C30.9896 19.1603 29.7855 20.3645 28.3334 20.3645Z" fill="#292D32"/>
<path d="M56.6666 20.3645C55.2145 20.3645 54.0104 19.1603 54.0104 17.7083V7.08325C54.0104 5.63117 55.2145 4.427 56.6666 4.427C58.1187 4.427 59.3229 5.63117 59.3229 7.08325V17.7083C59.3229 19.1603 58.1187 20.3645 56.6666 20.3645Z" fill="#292D32"/>
<path d="M30.1042 51.3542C29.1833 51.3542 28.2625 50.9646 27.5896 50.3271C26.9521 49.6542 26.5625 48.7688 26.5625 47.8126C26.5625 47.3521 26.6688 46.8917 26.8458 46.4667C27.0229 46.0417 27.2708 45.6522 27.5896 45.298C28.9 43.9876 31.2729 43.9876 32.6187 45.298C33.2562 45.9709 33.6458 46.8917 33.6458 47.8126C33.6458 48.0251 33.6104 48.273 33.575 48.5209C33.5396 48.7334 33.4687 48.9459 33.3625 49.1584C33.2917 49.3709 33.1854 49.5834 33.0438 49.7959C32.9021 49.973 32.7604 50.15 32.6187 50.3271C31.9458 50.9646 31.025 51.3542 30.1042 51.3542Z" fill="black"/>
<path d="M42.5 51.3542C42.0396 51.3542 41.5792 51.248 41.1542 51.0709C40.6938 50.8938 40.3396 50.6459 39.9855 50.3271C39.348 49.6542 38.9584 48.7688 38.9584 47.8125C38.9584 47.3521 39.0646 46.8917 39.2417 46.4667C39.4188 46.0417 39.6667 45.6522 39.9855 45.298C40.3396 44.9792 40.6938 44.7312 41.1542 44.5542C42.4646 44.0229 44.023 44.3063 45.0146 45.298C45.6521 45.9709 46.0417 46.8917 46.0417 47.8125C46.0417 48.025 46.0063 48.273 45.9709 48.5209C45.9355 48.7334 45.8646 48.9459 45.7584 49.1584C45.6875 49.3709 45.5813 49.5834 45.4396 49.7959C45.3334 49.973 45.1563 50.15 45.0146 50.3271C44.3417 50.9646 43.4209 51.3542 42.5 51.3542Z" fill="black"/>
<path d="M30.1042 63.75C29.6437 63.75 29.1833 63.6438 28.7583 63.4667C28.2979 63.2896 27.9083 63.0416 27.5896 62.7229C27.2708 62.4041 27.0229 62.0146 26.8458 61.5542C26.6688 61.1292 26.5625 60.6688 26.5625 60.2083C26.5625 59.7479 26.6688 59.2875 26.8458 58.8625C27.0229 58.4021 27.2708 58.0125 27.5896 57.6938C27.9083 57.375 28.2979 57.127 28.7583 56.95C29.6083 56.5958 30.6 56.5604 31.45 56.95C31.9104 57.127 32.3 57.375 32.6187 57.6938C32.9375 58.0125 33.1854 58.4021 33.3625 58.8625C33.5396 59.2875 33.6458 59.7479 33.6458 60.2083C33.6458 60.6688 33.5396 61.1292 33.3625 61.5542C33.1854 62.0146 32.9375 62.4041 32.6187 62.7229C32.3 63.0416 31.9104 63.2896 31.45 63.4667C31.025 63.6438 30.5646 63.75 30.1042 63.75Z" fill="black"/>
<path d="M72.6042 34.8499H12.3959C10.9438 34.8499 9.73962 33.6457 9.73962 32.1936C9.73962 30.7415 10.9438 29.5374 12.3959 29.5374H72.6042C74.0563 29.5374 75.2605 30.7415 75.2605 32.1936C75.2605 33.6457 74.0563 34.8499 72.6042 34.8499Z" fill="#292D32"/>
<path d="M63.75 84.1146C59.6063 84.1146 55.675 82.6271 52.6646 79.9C51.3896 78.8375 50.2563 77.4917 49.3355 75.9333C47.7771 73.3833 46.9271 70.3729 46.9271 67.2917C46.9271 58.0125 54.4709 50.4688 63.75 50.4688C68.5667 50.4688 73.1709 52.5583 76.3584 56.1708C79.0854 59.2874 80.573 63.2188 80.573 67.2917C80.573 70.3729 79.7229 73.3834 78.1292 75.9688C75.1542 80.998 69.6292 84.1146 63.75 84.1146ZM63.75 55.7813C57.4105 55.7813 52.2396 60.9521 52.2396 67.2917C52.2396 69.3813 52.8063 71.4355 53.9042 73.2063C54.5063 74.2688 55.2855 75.1541 56.1355 75.8979C58.2605 77.8104 60.9167 78.8021 63.75 78.8021C67.823 78.8021 71.5063 76.7125 73.5959 73.2416C74.6938 71.4354 75.2605 69.4167 75.2605 67.2917C75.2605 64.5292 74.2334 61.8375 72.3917 59.6771C70.1959 57.1979 67.0438 55.7813 63.75 55.7813Z" fill="black"/>
<path d="M61.7308 73.4541C61.0579 73.4541 60.385 73.2062 59.8537 72.6749L56.3475 69.1687C55.3204 68.1417 55.3204 66.4417 56.3475 65.4146C57.3745 64.3875 59.0745 64.3875 60.1016 65.4146L61.8016 67.1146L67.4683 61.8729C68.5308 60.8812 70.2308 60.9521 71.2224 62.0146C72.2141 63.0771 72.1433 64.7771 71.0808 65.7688L63.537 72.7459C63.0058 73.2063 62.3683 73.4541 61.7308 73.4541Z" fill="#FFD200"/>
<path d="M54.4354 80.5728H28.3333C15.4062 80.5728 7.96875 73.1353 7.96875 60.2082V30.1041C7.96875 17.177 15.4062 9.7395 28.3333 9.7395H56.6667C69.5938 9.7395 77.0312 17.177 77.0312 30.1041V57.9415C77.0312 59.0394 76.3583 60.0312 75.2958 60.4207C74.2688 60.8103 73.1 60.527 72.3563 59.677C70.1604 57.1979 67.0083 55.7812 63.7146 55.7812C57.375 55.7812 52.2042 60.952 52.2042 67.2916C52.2042 69.3812 52.7708 71.4354 53.8687 73.2062C54.4708 74.2687 55.25 75.1541 56.1 75.8978C56.95 76.6061 57.2687 77.7749 56.8792 78.8374C56.5604 79.8645 55.5688 80.5728 54.4354 80.5728ZM28.3333 15.052C18.2042 15.052 13.2812 19.9749 13.2812 30.1041V60.2082C13.2812 70.3374 18.2042 75.2603 28.3333 75.2603H48.9458C47.6354 72.852 46.9271 70.1249 46.9271 67.2916C46.9271 58.0124 54.4708 50.4687 63.75 50.4687C66.5479 50.4687 69.3104 51.177 71.7188 52.4874V30.1041C71.7188 19.9749 66.7958 15.052 56.6667 15.052H28.3333Z" fill="#292D32"/>
</svg>
