<svg width="85" height="85" viewBox="0 0 85 85" fill="none" xmlns="http://www.w3.org/2000/svg">
<path d="M62.4042 34.0708H43.8104C42.3583 34.0708 41.1542 32.8666 41.1542 31.4145C41.1542 29.9625 42.3583 28.7583 43.8104 28.7583H62.4042C63.8563 28.7583 65.0604 29.9625 65.0604 31.4145C65.0604 32.8666 63.8917 34.0708 62.4042 34.0708Z" fill="#292D32"/>
<path d="M25.2166 36.7624C24.5437 36.7624 23.8708 36.5145 23.3395 35.9832L20.6833 33.327C19.6562 32.2999 19.6562 30.5999 20.6833 29.5728C21.7104 28.5457 23.4104 28.5457 24.4374 29.5728L25.2166 30.352L31.3083 24.2603C32.3354 23.2332 34.0354 23.2332 35.0624 24.2603C36.0895 25.2874 36.0895 26.9874 35.0624 28.0145L27.0937 35.9832C26.5979 36.4791 25.9249 36.7624 25.2166 36.7624Z" fill="#FFD200"/>
<path d="M62.4042 58.8626H43.8104C42.3583 58.8626 41.1542 57.6584 41.1542 56.2063C41.1542 54.7542 42.3583 53.55 43.8104 53.55H62.4042C63.8563 53.55 65.0604 54.7542 65.0604 56.2063C65.0604 57.6584 63.8917 58.8626 62.4042 58.8626Z" fill="#292D32"/>
<path d="M25.2166 61.5541C24.5437 61.5541 23.8708 61.3062 23.3395 60.775L20.6833 58.1187C19.6562 57.0916 19.6562 55.3916 20.6833 54.3646C21.7104 53.3375 23.4104 53.3375 24.4374 54.3646L25.2166 55.1437L31.3083 49.0521C32.3354 48.025 34.0354 48.025 35.0624 49.0521C36.0895 50.0791 36.0895 51.7791 35.0624 52.8062L27.0937 60.775C26.5979 61.2708 25.9249 61.5541 25.2166 61.5541Z" fill="#FFD200"/>
<path d="M53.125 80.5728H31.875C12.6438 80.5728 4.42712 72.3562 4.42712 53.1249V31.8749C4.42712 12.6437 12.6438 4.427 31.875 4.427H53.125C72.3563 4.427 80.573 12.6437 80.573 31.8749V53.1249C80.573 72.3562 72.3563 80.5728 53.125 80.5728ZM31.875 9.7395C15.548 9.7395 9.73962 15.5478 9.73962 31.8749V53.1249C9.73962 69.452 15.548 75.2603 31.875 75.2603H53.125C69.4521 75.2603 75.2605 69.452 75.2605 53.1249V31.8749C75.2605 15.5478 69.4521 9.7395 53.125 9.7395H31.875Z" fill="#292D32"/>
</svg>
