<svg width="85" height="85" viewBox="0 0 85 85" fill="none" xmlns="http://www.w3.org/2000/svg">
<path d="M42.5 45.1564C31.2729 45.1564 22.1354 36.0189 22.1354 24.7918C22.1354 13.5647 31.2729 4.42725 42.5 4.42725C53.727 4.42725 62.8645 13.5647 62.8645 24.7918C62.8645 36.0189 53.727 45.1564 42.5 45.1564ZM42.5 9.73975C34.2125 9.73975 27.4479 16.5043 27.4479 24.7918C27.4479 33.0793 34.2125 39.8439 42.5 39.8439C50.7875 39.8439 57.552 33.0793 57.552 24.7918C57.552 16.5043 50.7875 9.73975 42.5 9.73975Z" fill="#292D32"/>
<path d="M12.0776 80.5729C10.6256 80.5729 9.42139 79.3687 9.42139 77.9167C9.42139 62.7937 24.261 50.4688 42.5005 50.4688C46.0776 50.4688 49.5838 50.9293 52.9838 51.8855C54.4005 52.2751 55.2152 53.7271 54.8256 55.1438C54.436 56.5604 52.9839 57.3751 51.5672 56.9855C48.663 56.1709 45.6172 55.7812 42.5005 55.7812C27.2005 55.7812 14.7339 65.6979 14.7339 77.9167C14.7339 79.3687 13.5297 80.5729 12.0776 80.5729Z" fill="#292D32"/>
<path d="M63.75 80.5731C57.8709 80.5731 52.3459 77.4564 49.3709 72.3918C47.7771 69.8418 46.9271 66.8314 46.9271 63.7502C46.9271 58.5793 49.2292 53.798 53.2313 50.6105C56.2063 48.2376 59.9605 46.9272 63.75 46.9272C73.0292 46.9272 80.573 54.471 80.573 63.7502C80.573 66.8314 79.7229 69.8419 78.1292 72.4273C77.2438 73.9148 76.1104 75.2606 74.7646 76.3939C71.825 79.0856 67.8938 80.5731 63.75 80.5731ZM63.75 52.2397C61.1292 52.2397 58.65 53.1251 56.5605 54.7896C53.8334 56.9501 52.2396 60.2439 52.2396 63.7502C52.2396 65.8397 52.8063 67.8939 53.9042 69.6647C55.9584 73.1355 59.748 75.2606 63.75 75.2606C66.548 75.2606 69.2396 74.2335 71.2938 72.3918C72.2146 71.6127 72.9938 70.6918 73.5604 69.7001C74.6938 67.8939 75.2605 65.8397 75.2605 63.7502C75.2605 57.4106 70.0896 52.2397 63.75 52.2397Z" fill="#FFD200"/>
<path d="M61.7308 69.9127C61.0578 69.9127 60.3849 69.6649 59.8537 69.1336L56.3475 65.6274C55.3204 64.6003 55.3204 62.9001 56.3475 61.873C57.3745 60.8459 59.0745 60.8459 60.1016 61.873L61.8017 63.5732L67.4682 58.3314C68.5307 57.3397 70.2307 57.4107 71.2224 58.4732C72.2141 59.5357 72.1433 61.2357 71.0808 62.2273L63.537 69.2043C63.0058 69.6647 62.3683 69.9127 61.7308 69.9127Z" fill="#292D32"/>
</svg>
