<svg width="85" height="85" viewBox="0 0 85 85" fill="none" xmlns="http://www.w3.org/2000/svg">
<path d="M42.5 48.6978C41.0479 48.6978 39.8438 47.4936 39.8438 46.0415V27.4478C39.8438 25.9957 41.0479 24.7915 42.5 24.7915C43.9521 24.7915 45.1563 25.9957 45.1563 27.4478V46.0415C45.1563 47.4936 43.9521 48.6978 42.5 48.6978Z" fill="#FFD200"/>
<path d="M42.5 61.0938C41.5438 61.0938 40.6583 60.7397 39.9854 60.0668C39.6666 59.7127 39.4188 59.323 39.2063 58.898C39.0292 58.473 38.9584 58.0126 38.9584 57.5522C38.9584 56.6313 39.3479 55.7104 39.9854 55.0375C41.2958 53.7271 43.7043 53.7271 45.0147 55.0375C45.6522 55.7104 46.0417 56.6313 46.0417 57.5522C46.0417 58.0126 45.9354 58.473 45.7583 58.898C45.5812 59.323 45.3335 59.7127 45.0147 60.0668C44.3418 60.7397 43.4563 61.0938 42.5 61.0938Z" fill="#FFD200"/>
<path d="M42.5006 80.5727C40.1277 80.5727 37.7193 79.9705 35.5943 78.7309L14.5568 66.583C10.3068 64.1039 7.65051 59.5351 7.65051 54.6122V30.3873C7.65051 25.4644 10.3068 20.8956 14.5568 18.4164L35.5943 6.26855C39.8443 3.78939 45.1215 3.78939 49.4069 6.26855L70.4444 18.4164C74.6944 20.8956 77.3507 25.4644 77.3507 30.3873V54.6122C77.3507 59.5351 74.6944 64.1039 70.4444 66.583L49.4069 78.7309C47.2819 79.9705 44.8735 80.5727 42.5006 80.5727ZM42.5006 9.73932C41.0485 9.73932 39.561 10.1289 38.2506 10.8727L17.2131 23.0206C14.5922 24.5435 12.963 27.3415 12.963 30.3873V54.6122C12.963 57.6226 14.5922 60.456 17.2131 61.9789L38.2506 74.1268C40.8714 75.6497 44.1298 75.6497 46.7152 74.1268L67.7527 61.9789C70.3735 60.456 72.0028 57.658 72.0028 54.6122V30.3873C72.0028 27.3769 70.3735 24.5435 67.7527 23.0206L46.7152 10.8727C45.4402 10.1289 43.9527 9.73932 42.5006 9.73932Z" fill="#292D32"/>
</svg>
