<svg width="85" height="85" viewBox="0 0 85 85" fill="none" xmlns="http://www.w3.org/2000/svg">
<path d="M55.9938 71.4709C55.0729 71.4709 54.1167 71.4355 53.0896 71.3292C51.2479 71.1876 49.1583 70.8334 46.9979 70.3022L41.0479 68.8855C24.7208 65.0251 19.3729 56.3834 23.1979 40.0917L26.6688 25.2522C27.4479 21.8876 28.3688 19.1605 29.5021 16.8938C35.5938 4.32091 47.2458 5.45424 55.5333 7.40216L61.4479 8.78341C69.7354 10.7313 74.9771 13.8126 77.9167 18.523C80.8208 23.2334 81.2813 29.2897 79.3333 37.5772L75.8625 52.3813C72.8167 65.3438 66.4771 71.4709 55.9938 71.4709ZM46.4667 11.5105C40.5521 11.5105 36.7979 13.9542 34.2833 19.1959C33.3625 21.1084 32.5479 23.4813 31.8396 26.4563L28.3688 41.2959C25.2167 54.6834 28.8646 60.5272 42.2521 63.7147L48.2021 65.1313C50.1146 65.5917 51.9208 65.8751 53.55 66.0167C63.1833 66.973 67.9646 62.7584 70.6563 51.1772L74.1271 36.373C75.7208 29.5376 75.5083 24.7563 73.3833 21.3209C71.2583 17.8855 67.0792 15.548 60.2083 13.9542L54.2938 12.573C51.3542 11.8647 48.7333 11.5105 46.4667 11.5105Z" fill="#292D32"/>
<path d="M29.5021 78.8022C20.4 78.8022 14.5916 73.348 10.8729 61.8376L6.33956 47.848C1.3104 32.2647 5.80831 23.4814 21.3208 18.4522L26.9166 16.6459C28.7583 16.0793 30.1396 15.6897 31.3791 15.4772C32.4062 15.2647 33.3979 15.6543 34 16.4689C34.6021 17.2834 34.7083 18.3459 34.2833 19.2668C33.3625 21.1439 32.5479 23.5168 31.875 26.4918L28.4042 41.3314C25.2521 54.7189 28.9 60.5626 42.2875 63.7501L48.2375 65.1668C50.15 65.6272 51.9562 65.9105 53.5854 66.0522C54.7187 66.1584 55.6396 66.9376 55.9583 68.0355C56.2416 69.1334 55.8167 70.2668 54.8958 70.9043C52.5583 72.498 49.6187 73.8438 45.9 75.048L40.3041 76.8897C36.2312 78.1647 32.6896 78.8022 29.5021 78.8022ZM27.5541 22.0293L22.9854 23.5168C10.3416 27.5897 7.33123 33.5397 11.4041 46.2189L15.9375 60.2084C20.0458 72.8522 25.9958 75.898 38.6396 71.8251L44.2354 69.9834C44.4479 69.9126 44.625 69.8418 44.8375 69.7709L41.0833 68.8855C24.7562 65.0251 19.4083 56.3834 23.2333 40.0918L26.7041 25.2522C26.9521 24.1189 27.2354 23.0209 27.5541 22.0293Z" fill="#292D32"/>
<path d="M61.9437 37.2229C61.7312 37.2229 61.5187 37.1874 61.2708 37.152L44.0937 32.7958C42.6771 32.4416 41.8271 30.9895 42.1812 29.5729C42.5354 28.1562 43.9875 27.3062 45.4041 27.6604L62.5812 32.0166C63.9979 32.3708 64.8479 33.8229 64.4937 35.2395C64.2104 36.4083 63.1125 37.2229 61.9437 37.2229Z" fill="#FFD200"/>
<path d="M51.5667 49.1937C51.3542 49.1937 51.1417 49.1583 50.8938 49.1229L40.5875 46.5021C39.1708 46.1479 38.3208 44.6958 38.675 43.2792C39.0292 41.8625 40.4813 41.0125 41.8979 41.3667L52.2042 43.9875C53.6208 44.3417 54.4708 45.7937 54.1167 47.2104C53.8333 48.4146 52.7708 49.1937 51.5667 49.1937Z" fill="#FFD200"/>
</svg>
