<svg width="85" height="85" viewBox="0 0 85 85" fill="none" xmlns="http://www.w3.org/2000/svg">
<path d="M42.5 55.7812C35.1688 55.7812 29.2188 49.8313 29.2188 42.5C29.2188 35.1688 35.1688 29.2188 42.5 29.2188C49.8313 29.2188 55.7812 35.1688 55.7812 42.5C55.7812 49.8313 49.8313 55.7812 42.5 55.7812ZM42.5 34.5312C38.1083 34.5312 34.5312 38.1083 34.5312 42.5C34.5312 46.8917 38.1083 50.4688 42.5 50.4688C46.8917 50.4688 50.4688 46.8917 50.4688 42.5C50.4688 38.1083 46.8917 34.5312 42.5 34.5312Z" fill="#FFD200"/>
<path d="M53.8688 78.5895C53.125 78.5895 52.3813 78.4833 51.6375 78.3062C49.4417 77.7041 47.6 76.3229 46.4313 74.375L46.0063 73.6666C43.9167 70.0541 41.048 70.0541 38.9584 73.6666L38.5688 74.3395C37.4 76.3229 35.5584 77.7395 33.3625 78.3062C31.1313 78.9083 28.8292 78.5895 26.8813 77.4208L20.7896 73.9145C18.6292 72.675 17.0709 70.6562 16.398 68.2125C15.7605 65.7687 16.0792 63.2541 17.3188 61.0937C18.3459 59.2875 18.6292 57.6583 18.0271 56.6312C17.425 55.6041 15.9021 55.002 13.8125 55.002C8.64171 55.002 4.42712 50.7875 4.42712 45.6166V39.3833C4.42712 34.2125 8.64171 29.9979 13.8125 29.9979C15.9021 29.9979 17.425 29.3958 18.0271 28.3687C18.6292 27.3416 18.3813 25.7125 17.3188 23.9062C16.0792 21.7458 15.7605 19.1958 16.398 16.7875C17.0355 14.3437 18.5938 12.325 20.7896 11.0854L26.9167 7.57912C30.9188 5.20621 36.1959 6.58746 38.6042 10.6604L39.0292 11.3687C41.1188 14.9812 43.9875 14.9812 46.0771 11.3687L46.4667 10.6958C48.875 6.58746 54.1521 5.20621 58.1896 7.61454L64.2813 11.1208C66.4417 12.3604 68 14.3791 68.673 16.8229C69.3105 19.2666 68.9917 21.7812 67.7521 23.9416C66.725 25.7479 66.4417 27.377 67.0438 28.4041C67.6459 29.4312 69.1688 30.0333 71.2584 30.0333C76.4292 30.0333 80.6438 34.2479 80.6438 39.4187V45.652C80.6438 50.8229 76.4292 55.0375 71.2584 55.0375C69.1688 55.0375 67.6459 55.6395 67.0438 56.6666C66.4417 57.6937 66.6896 59.3229 67.7521 61.1291C68.9917 63.2895 69.3459 65.8395 68.673 68.2479C68.0355 70.6916 66.4771 72.7104 64.2813 73.95L58.1542 77.4562C56.8084 78.2 55.3563 78.5895 53.8688 78.5895ZM42.5 65.4854C45.6521 65.4854 48.5917 67.4687 50.6105 70.975L51 71.6479C51.425 72.3916 52.1334 72.9229 52.9834 73.1354C53.8334 73.3479 54.6834 73.2416 55.3917 72.8166L61.5188 69.275C62.4396 68.7437 63.148 67.8583 63.4313 66.7958C63.7146 65.7333 63.573 64.6354 63.0417 63.7145C61.023 60.2437 60.775 56.6666 62.3334 53.9395C63.8917 51.2125 67.1146 49.6541 71.1521 49.6541C73.4188 49.6541 75.225 47.8479 75.225 45.5812V39.3479C75.225 37.1166 73.4188 35.275 71.1521 35.275C67.1146 35.275 63.8917 33.7166 62.3334 30.9895C60.775 28.2625 61.023 24.6854 63.0417 21.2145C63.573 20.2937 63.7146 19.1958 63.4313 18.1333C63.148 17.0708 62.475 16.2208 61.5542 15.6541L55.4271 12.1479C53.9042 11.227 51.8855 11.7583 50.9646 13.3166L50.575 13.9895C48.5563 17.4958 45.6167 19.4791 42.4646 19.4791C39.3125 19.4791 36.373 17.4958 34.3542 13.9895L33.9646 13.2812C33.0792 11.7937 31.0959 11.2625 29.573 12.1479L23.4459 15.6895C22.525 16.2208 21.8167 17.1062 21.5334 18.1687C21.25 19.2312 21.3917 20.3291 21.923 21.25C23.9417 24.7208 24.1896 28.2979 22.6313 31.025C21.073 33.752 17.85 35.3104 13.8125 35.3104C11.5459 35.3104 9.73962 37.1166 9.73962 39.3833V45.6166C9.73962 47.8479 11.5459 49.6895 13.8125 49.6895C17.85 49.6895 21.073 51.2479 22.6313 53.975C24.1896 56.702 23.9417 60.2791 21.923 63.75C21.3917 64.6708 21.25 65.7687 21.5334 66.8312C21.8167 67.8937 22.4896 68.7437 23.4105 69.3104L29.5375 72.8166C30.2813 73.277 31.1667 73.3833 31.9813 73.1708C32.8313 72.9583 33.5396 72.3916 34 71.6479L34.3896 70.975C36.4084 67.5041 39.348 65.4854 42.5 65.4854Z" fill="#292D32"/>
</svg>
