<svg width="85" height="85" viewBox="0 0 85 85" fill="none" xmlns="http://www.w3.org/2000/svg">
<path d="M60.2082 73.4896H42.4999C41.0478 73.4896 39.8437 72.2854 39.8437 70.8333C39.8437 69.3812 41.0478 68.1771 42.4999 68.1771H60.2082C70.3374 68.1771 75.2603 63.2542 75.2603 53.125V31.875C75.2603 21.7458 70.3374 16.8229 60.2082 16.8229H24.7916C14.6624 16.8229 9.7395 21.7458 9.7395 31.875V38.9583C9.7395 40.4104 8.53534 41.6146 7.08325 41.6146C5.63117 41.6146 4.427 40.4104 4.427 38.9583V31.875C4.427 18.9479 11.8645 11.5104 24.7916 11.5104H60.2082C73.1353 11.5104 80.5728 18.9479 80.5728 31.875V53.125C80.5728 66.0521 73.1353 73.4896 60.2082 73.4896Z" fill="#292D32"/>
<path d="M42.4999 54.0104C36.1603 54.0104 30.9895 48.8396 30.9895 42.5C30.9895 36.1604 36.1603 30.9896 42.4999 30.9896C48.8395 30.9896 54.0103 36.1604 54.0103 42.5C54.0103 48.8396 48.8395 54.0104 42.4999 54.0104ZM42.4999 36.3021C39.0999 36.3021 36.302 39.1 36.302 42.5C36.302 45.9 39.0999 48.6979 42.4999 48.6979C45.8999 48.6979 48.6978 45.9 48.6978 42.5C48.6978 39.1 45.8999 36.3021 42.4999 36.3021Z" fill="#292D32"/>
<path d="M65.5208 54.0104C64.0687 54.0104 62.8645 52.8063 62.8645 51.3542V33.6458C62.8645 32.1938 64.0687 30.9896 65.5208 30.9896C66.9728 30.9896 68.177 32.1938 68.177 33.6458V51.3542C68.177 52.8063 66.9728 54.0104 65.5208 54.0104Z" fill="#292D32"/>
<path d="M30.1041 66.1938C28.652 66.1938 27.4478 64.9896 27.4478 63.5375V59.0041C27.4478 58.2249 26.8104 57.5521 25.9958 57.5521H7.08325C5.63117 57.5521 4.427 56.3479 4.427 54.8958C4.427 53.4438 5.63117 52.2396 7.08325 52.2396H25.9958C29.7146 52.2396 32.7603 55.2853 32.7603 59.0041V63.5375C32.7603 64.9896 31.5562 66.1938 30.1041 66.1938Z" fill="#FFD200"/>
<path d="M11.404 61.8727C10.7311 61.8727 10.0583 61.6249 9.52705 61.0936L5.2061 56.7729C4.17902 55.7458 4.17902 54.0456 5.2061 53.0185L9.52705 48.6978C10.5541 47.6707 12.2541 47.6707 13.2812 48.6978C14.3083 49.7249 14.3083 51.4249 13.2812 52.452L10.8374 54.8957L13.2812 57.3395C14.3083 58.3666 14.3083 60.0666 13.2812 61.0936C12.75 61.6249 12.0769 61.8727 11.404 61.8727Z" fill="#292D32"/>
<path d="M30.1041 76.2524H11.1915C7.47274 76.2524 4.427 73.2064 4.427 69.4877V64.9545C4.427 63.5024 5.63117 62.2982 7.08325 62.2982C8.53534 62.2982 9.7395 63.5024 9.7395 64.9545V69.4877C9.7395 70.2669 10.3769 70.9399 11.1915 70.9399H30.1041C31.5562 70.9399 32.7603 72.1441 32.7603 73.5961C32.7603 75.0482 31.5562 76.2524 30.1041 76.2524Z" fill="#FFD200"/>
<path d="M25.7825 80.5728C25.1096 80.5728 24.4366 80.325 23.9053 79.7937C22.8782 78.7667 22.8782 77.0665 23.9053 76.0394L26.3491 73.5958L23.9053 71.1521C22.8782 70.125 22.8782 68.425 23.9053 67.3979C24.9324 66.3708 26.6324 66.3708 27.6595 67.3979L31.9804 71.7186C33.0075 72.7457 33.0075 74.4457 31.9804 75.4728L27.6595 79.7937C27.1636 80.325 26.4554 80.5728 25.7825 80.5728Z" fill="#292D32"/>
</svg>
