<svg width="85" height="85" viewBox="0 0 85 85" fill="none" xmlns="http://www.w3.org/2000/svg">
<path d="M63.7495 28.0146C63.6432 28.0146 63.5724 28.0146 63.4661 28.0146H63.2891C56.5953 27.8021 51.6016 22.6313 51.6016 16.2563C51.6016 9.73961 56.9141 4.46252 63.3953 4.46252C69.8766 4.46252 75.1891 9.77503 75.1891 16.2563C75.1537 22.6667 70.1599 27.8375 63.7849 28.05C63.7849 28.0146 63.7849 28.0146 63.7495 28.0146ZM63.3953 9.73963C59.8182 9.73963 56.9141 12.6438 56.9141 16.2209C56.9141 19.7271 59.6412 22.5605 63.1474 22.7021C63.1828 22.6667 63.4661 22.6667 63.7849 22.7021C67.2203 22.5251 69.8766 19.6917 69.912 16.2209C69.912 12.6438 67.0078 9.73963 63.3953 9.73963Z" fill="#292D32"/>
<path d="M63.7854 54.1167C62.4042 54.1167 61.0229 54.0105 59.6417 53.7625C58.1896 53.5146 57.2334 52.1334 57.4813 50.6813C57.7292 49.2292 59.1104 48.273 60.5625 48.5209C64.9188 49.2646 69.5229 48.4501 72.6042 46.3959C74.2688 45.298 75.1542 43.9167 75.1542 42.5355C75.1542 41.1542 74.2334 39.8084 72.6042 38.7105C69.5229 36.6563 64.8479 35.8417 60.4563 36.6209C59.0042 36.9042 57.6229 35.9125 57.375 34.4605C57.1271 33.0084 58.0834 31.6271 59.5354 31.3792C65.3084 30.3521 71.2938 31.45 75.5438 34.2834C78.6604 36.373 80.4667 39.348 80.4667 42.5355C80.4667 45.6875 78.6959 48.698 75.5438 50.823C72.3209 52.948 68.1417 54.1167 63.7854 54.1167Z" fill="#292D32"/>
<path d="M21.1437 28.0146C21.1083 28.0146 21.0729 28.0146 21.0729 28.0146C14.6979 27.8021 9.70412 22.6313 9.6687 16.2563C9.6687 9.73961 14.9812 4.42712 21.4625 4.42712C27.9437 4.42712 33.2562 9.73963 33.2562 16.2209C33.2562 22.6313 28.2625 27.8021 21.8875 28.0146L21.1437 25.3584L21.3916 28.0146C21.3208 28.0146 21.2145 28.0146 21.1437 28.0146ZM21.4979 22.7021C21.7104 22.7021 21.8875 22.7021 22.1 22.7375C25.252 22.5959 28.0145 19.7625 28.0145 16.2563C28.0145 12.6792 25.1104 9.77502 21.5333 9.77502C17.9562 9.77502 15.052 12.6792 15.052 16.2563C15.052 19.7271 17.7437 22.525 21.1791 22.7375C21.2145 22.7021 21.3562 22.7021 21.4979 22.7021Z" fill="#292D32"/>
<path d="M21.1082 54.1167C16.752 54.1167 12.5728 52.948 9.34992 50.823C6.23325 48.7334 4.427 45.723 4.427 42.5355C4.427 39.3834 6.23325 36.373 9.34992 34.2834C13.5999 31.45 19.5853 30.3521 25.3582 31.3792C26.8103 31.6271 27.7666 33.0084 27.5187 34.4605C27.2708 35.9125 25.8895 36.9042 24.4374 36.6209C20.0458 35.8417 15.4062 36.6563 12.2895 38.7105C10.6249 39.8084 9.7395 41.1542 9.7395 42.5355C9.7395 43.9167 10.6603 45.298 12.2895 46.3959C15.3708 48.4501 19.9749 49.2646 24.3312 48.5209C25.7832 48.273 27.1645 49.2646 27.4124 50.6813C27.6603 52.1334 26.7041 53.5146 25.252 53.7625C23.8708 54.0105 22.4895 54.1167 21.1082 54.1167Z" fill="#292D32"/>
<path d="M42.4995 54.4708C42.3932 54.4708 42.3224 54.4708 42.2161 54.4708H42.0391C35.3453 54.2583 30.3516 49.0875 30.3516 42.7125C30.3516 36.1958 35.6641 30.9187 42.1453 30.9187C48.6266 30.9187 53.9391 36.2312 53.9391 42.7125C53.9036 49.1229 48.9099 54.2937 42.5349 54.5062C42.5349 54.4708 42.5349 54.4708 42.4995 54.4708ZM42.1453 36.1958C38.5682 36.1958 35.6641 39.1 35.6641 42.6771C35.6641 46.1833 38.3912 49.0167 41.8974 49.1583C41.9328 49.1229 42.2161 49.1229 42.5349 49.1583C45.9703 48.9812 48.6266 46.1479 48.662 42.6771C48.662 39.1354 45.7578 36.1958 42.1453 36.1958Z" fill="#FFD200"/>
<path d="M42.4991 80.6082C38.2491 80.6082 33.9991 79.5103 30.7054 77.2791C27.5887 75.1895 25.7825 72.2145 25.7825 69.027C25.7825 65.8749 27.5533 62.829 30.7054 60.7394C37.3283 56.3478 47.7054 56.3478 54.2929 60.7394C57.4096 62.829 59.2158 65.804 59.2158 68.9915C59.2158 72.1436 57.445 75.1895 54.2929 77.2791C50.9991 79.4749 46.7491 80.6082 42.4991 80.6082ZM33.645 65.202C31.9804 66.2999 31.095 67.6811 31.095 69.0624C31.095 70.4436 32.0158 71.7895 33.645 72.8874C38.4262 76.1103 46.5366 76.1103 51.3179 72.8874C52.9825 71.7895 53.8679 70.4082 53.8679 69.027C53.8679 67.6457 52.9471 66.2999 51.3179 65.202C46.5721 61.979 38.4616 62.0145 33.645 65.202Z" fill="#FFD200"/>
</svg>
