<svg width="85" height="85" viewBox="0 0 85 85" fill="none" xmlns="http://www.w3.org/2000/svg">
<path d="M19.3729 38.0728C16.8583 38.0728 14.3083 37.152 12.3604 35.2749C5.84371 29.077 3.22288 22.3124 4.74579 15.6895C6.55204 7.89783 13.3875 4.427 19.3729 4.427C25.3583 4.427 32.2291 7.93325 34 15.6895C35.5229 22.3124 32.8666 29.077 26.3854 35.2749C24.4375 37.152 21.9229 38.0728 19.3729 38.0728ZM9.91663 16.8937C8.57079 22.8083 12.502 28.0499 16.0437 31.4145C17.9208 33.2208 20.8604 33.1853 22.7375 31.4145C26.2791 28.0499 30.2104 22.8083 28.8291 16.8583C27.625 11.6166 22.9854 9.7395 19.4083 9.7395C15.7958 9.7395 11.1562 11.6166 9.91663 16.8937Z" fill="#FFD200"/>
<path d="M19.5146 21.9583C17.5667 21.9583 15.9729 20.3646 15.9729 18.4167C15.9729 16.4687 17.5312 14.875 19.5146 14.875H19.55C21.4979 14.875 23.0917 16.4687 23.0917 18.4167C23.0917 20.3646 21.4979 21.9583 19.5146 21.9583Z" fill="#292D32"/>
<path d="M65.4854 80.5728C62.9708 80.5728 60.4208 79.652 58.4374 77.7749C51.8854 71.577 49.2291 64.8124 50.7874 58.1541C52.5937 50.3979 59.4645 46.8916 65.4854 46.8916C71.5062 46.8916 78.377 50.3979 80.1833 58.1541C81.7062 64.777 79.0499 71.577 72.4979 77.7395C70.5499 79.652 68.0354 80.5728 65.4854 80.5728ZM65.4854 52.2395C61.8729 52.2395 57.1979 54.1166 55.9583 59.3937C54.577 65.3083 58.5437 70.5853 62.0854 73.9499C63.9625 75.7562 66.9375 75.7562 68.85 73.9499C72.3916 70.5853 76.3583 65.3437 74.977 59.4291C73.8083 54.1166 69.1333 52.2395 65.4854 52.2395Z" fill="#FFD200"/>
<path d="M65.6271 64.4583C63.6792 64.4583 62.0854 62.8646 62.0854 60.9167C62.0854 58.9687 63.6438 57.375 65.6271 57.375H65.6625C67.6105 57.375 69.2042 58.9687 69.2042 60.9167C69.2042 62.8646 67.575 64.4583 65.6271 64.4583Z" fill="#292D32"/>
<path d="M42.5 69.9478H33.0083C28.9 69.9478 25.3229 67.4687 23.9063 63.6437C22.4542 59.8187 23.5167 55.6041 26.5979 52.877L54.8958 28.1208C56.5958 26.6333 56.6313 24.6145 56.1354 23.2333C55.6042 21.852 54.2583 20.3645 51.9917 20.3645H42.5C41.0479 20.3645 39.8438 19.1603 39.8438 17.7083C39.8438 16.2562 41.0479 15.052 42.5 15.052H51.9917C56.1 15.052 59.6771 17.5312 61.0938 21.3562C62.5458 25.1812 61.4833 29.3958 58.4021 32.1228L30.1042 56.8791C28.4042 58.3666 28.3688 60.3853 28.8646 61.7666C29.3958 63.1478 30.7417 64.6353 33.0083 64.6353H42.5C43.9521 64.6353 45.1563 65.8395 45.1563 67.2916C45.1563 68.7437 43.9521 69.9478 42.5 69.9478Z" fill="#292D32"/>
<path d="M42.5 69.9478H33.0083C28.9 69.9478 25.3229 67.4687 23.9063 63.6437C22.4542 59.8187 23.5167 55.6041 26.5979 52.877L54.8958 28.1208C56.5958 26.6333 56.6313 24.6145 56.1354 23.2333C55.6042 21.852 54.2583 20.3645 51.9917 20.3645H42.5C41.0479 20.3645 39.8438 19.1603 39.8438 17.7083C39.8438 16.2562 41.0479 15.052 42.5 15.052H51.9917C56.1 15.052 59.6771 17.5312 61.0938 21.3562C62.5458 25.1812 61.4833 29.3958 58.4021 32.1228L30.1042 56.8791C28.4042 58.3666 28.3688 60.3853 28.8646 61.7666C29.3958 63.1478 30.7417 64.6353 33.0083 64.6353H42.5C43.9521 64.6353 45.1563 65.8395 45.1563 67.2916C45.1563 68.7437 43.9521 69.9478 42.5 69.9478Z" fill="#292D32"/>
</svg>
