<svg width="85" height="85" viewBox="0 0 85 85" fill="none" xmlns="http://www.w3.org/2000/svg">
<path d="M70.8333 20.3646H49.5833C48.1312 20.3646 46.927 19.1604 46.927 17.7083C46.927 16.2562 48.1312 15.0521 49.5833 15.0521H70.8333C72.2853 15.0521 73.4895 16.2562 73.4895 17.7083C73.4895 19.1604 72.2853 20.3646 70.8333 20.3646Z" fill="#FFD200"/>
<path d="M60.2083 30.9896H49.5833C48.1312 30.9896 46.927 29.7854 46.927 28.3333C46.927 26.8812 48.1312 25.6771 49.5833 25.6771H60.2083C61.6603 25.6771 62.8645 26.8812 62.8645 28.3333C62.8645 29.7854 61.6603 30.9896 60.2083 30.9896Z" fill="#FFD200"/>
<path d="M40.7291 77.0312C20.7187 77.0312 4.427 60.7396 4.427 40.7291C4.427 20.7187 20.7187 4.42706 40.7291 4.42706C42.1812 4.42706 43.3853 5.63123 43.3853 7.08331C43.3853 8.5354 42.1812 9.73956 40.7291 9.73956C23.6228 9.73956 9.7395 23.6583 9.7395 40.7291C9.7395 57.8 23.6228 71.7187 40.7291 71.7187C57.8353 71.7187 71.7187 57.8 71.7187 40.7291C71.7187 39.2771 72.9228 38.0729 74.3749 38.0729C75.827 38.0729 77.0312 39.2771 77.0312 40.7291C77.0312 60.7396 60.7395 77.0312 40.7291 77.0312Z" fill="#292D32"/>
<path d="M77.9168 80.5729C77.2438 80.5729 76.5709 80.325 76.0397 79.7937L68.9563 72.7104C67.9293 71.6833 67.9293 69.9833 68.9563 68.9562C69.9834 67.9291 71.6834 67.9291 72.7105 68.9562L79.7939 76.0396C80.8209 77.0666 80.8209 78.7666 79.7939 79.7937C79.2626 80.325 78.5897 80.5729 77.9168 80.5729Z" fill="#292D32"/>
</svg>
