<svg width="85" height="85" viewBox="0 0 85 85" fill="none" xmlns="http://www.w3.org/2000/svg">
<path d="M50.3971 57.0562H43.3846C41.7555 57.0562 39.3825 56.5602 38.0013 55.179L32.5471 50.9646L35.8055 46.7498L41.5076 51.1769C41.9326 51.4956 42.7117 51.7082 43.3846 51.7082H50.3971C51.4596 51.7082 52.7347 50.7873 52.9826 49.8665L57.4451 36.2311C57.5513 35.9478 57.6575 35.5581 57.4805 35.2748C57.3388 35.0623 56.9492 34.9207 56.4888 34.9207H49.1221C47.8117 34.9207 46.5721 34.3543 45.6867 33.3626C44.8367 32.3709 44.4472 31.025 44.6242 29.6791L45.5451 23.7644C45.6513 23.304 45.3326 22.7729 44.943 22.6313C44.6242 22.525 44.093 22.7019 43.9513 22.879L36.4076 34.1062L31.9805 31.1313L39.5242 19.9041C41.0117 17.6729 44.1638 16.6457 46.7138 17.6019C49.5826 18.5582 51.4242 21.7457 50.7867 24.7207L50.043 29.5728H56.4888C58.72 29.5728 60.668 30.529 61.8367 32.1936C62.9701 33.8228 63.218 35.9123 62.5096 37.9311L58.118 51.3187C57.3034 54.4708 53.9034 57.0562 50.3971 57.0562Z" fill="#FFD200"/>
<path d="M30.3167 55.0376H28.4751C22.9501 55.0376 22.1355 51.1772 22.1355 48.8752V30.8478C22.1355 28.5457 22.9501 24.6853 28.4751 24.6853H30.3167C35.8417 24.6853 36.6564 28.5457 36.6564 30.8478V48.8752C36.6564 51.1772 35.8417 55.0376 30.3167 55.0376ZM27.5542 49.6897C27.6605 49.6897 27.9438 49.7251 28.4751 49.7251H30.3167C30.8834 49.7251 31.2022 49.6542 31.3084 49.6188C31.3084 49.5479 31.3439 49.3356 31.3439 48.8752V30.8478C31.3439 30.3874 31.3084 30.1395 31.273 30.0687C31.2022 30.0687 30.9188 30.0333 30.3167 30.0333H28.4751C27.9084 30.0333 27.5896 30.1042 27.4834 30.1396C27.4834 30.2104 27.448 30.4228 27.448 30.8832V48.9106C27.448 49.371 27.4834 49.6189 27.5188 49.7251C27.5188 49.6897 27.5542 49.6897 27.5542 49.6897Z" fill="#FFD200"/>
<path d="M42.5 80.5729C40.0208 80.5729 37.5062 79.6165 35.6292 77.7394L29.5729 71.7542C28.05 70.2667 26.0666 69.452 23.9416 69.452H21.25C13.9188 69.452 7.96875 63.5375 7.96875 56.2771V17.6374C7.96875 10.377 13.9188 4.46252 21.25 4.46252H63.75C71.0813 4.46252 77.0312 10.377 77.0312 17.6374V56.2771C77.0312 63.5375 71.0813 69.452 63.75 69.452H61.0584C58.9334 69.452 56.9146 70.2667 55.4271 71.7542L49.3708 77.7394C47.4938 79.6165 44.9792 80.5729 42.5 80.5729ZM21.25 9.73957C16.8583 9.73957 13.2812 13.2811 13.2812 17.602V56.2417C13.2812 60.5979 16.8583 64.1041 21.25 64.1041H23.9416C27.4833 64.1041 30.8125 65.4852 33.3271 67.9644L39.3833 73.95C41.1187 75.65 43.9167 75.65 45.6521 73.95L51.7084 67.9644C54.2229 65.4852 57.5521 64.1041 61.0938 64.1041H63.75C68.1417 64.1041 71.7188 60.5625 71.7188 56.2417V17.602C71.7188 13.2457 68.1417 9.73957 63.75 9.73957H21.25Z" fill="#292D32"/>
</svg>
