<svg width="87" height="86" viewBox="0 0 87 86" fill="none" xmlns="http://www.w3.org/2000/svg">
<path d="M43.725 81.3121C41.5871 81.3121 39.4849 80.8132 37.7746 79.8512L20.9214 70.1241C13.9378 65.4208 13.4746 64.5657 13.4746 57.1902V39.5174C13.4746 32.1419 13.9378 31.2868 20.7789 26.6904L37.8103 16.8564C41.1952 14.8967 46.2904 14.8967 49.6753 16.8564L66.5285 26.5835C73.5121 31.2868 73.9753 32.1419 73.9753 39.5174V57.1902C73.9753 64.5657 73.5121 65.4208 66.671 70.0172L49.6396 79.8512C47.965 80.8489 45.8272 81.3121 43.725 81.3121ZM43.725 20.7401C42.5135 20.7401 41.3021 20.9895 40.4469 21.4884L23.5937 31.2155C18.8192 34.4579 18.8192 34.4579 18.8192 39.5174V57.1902C18.8192 62.2497 18.8192 62.2497 23.7718 65.599L40.4826 75.2192C42.1928 76.2169 45.2927 76.2169 47.003 75.2192L63.8562 65.4921C68.6307 62.2497 68.6307 62.2497 68.6307 57.1902V39.5174C68.6307 34.4579 68.6307 34.4579 63.6781 31.1086L46.9673 21.4884C46.1478 20.9895 44.9364 20.7401 43.725 20.7401Z" fill="#292D32"/>
<path d="M63.3217 30.111C61.8609 30.111 60.6494 28.8995 60.6494 27.4387V18.0678C60.6494 12.4382 58.2622 10.051 52.6325 10.051H34.8173C29.1876 10.051 26.8004 12.4382 26.8004 18.0678V27.1893C26.8004 28.6501 25.589 29.8616 24.1281 29.8616C22.6672 29.8616 21.4558 28.6858 21.4558 27.1893V18.0678C21.4558 9.44525 26.1947 4.70639 34.8173 4.70639H52.6325C61.2551 4.70639 65.994 9.44525 65.994 18.0678V27.4387C65.994 28.8995 64.7826 30.111 63.3217 30.111Z" fill="#292D32"/>
<path d="M49.5327 63.0692C48.7844 63.0692 48.0005 62.9267 47.2167 62.606L43.7249 61.2521L40.2331 62.6417C38.3447 63.3899 36.4206 63.2118 34.9954 62.1785C33.5702 61.1452 32.8219 59.3637 32.9288 57.3327L33.1426 53.5915L30.7554 50.7054C29.4727 49.1021 29.0451 47.2493 29.6152 45.539C30.1496 43.8644 31.6105 42.5817 33.5702 42.0828L37.2045 41.1564L39.2354 37.9853C41.4089 34.5648 46.0765 34.5648 48.25 37.9853L50.2809 41.1564L53.9152 42.0828C55.8749 42.5817 57.3358 43.8644 57.8702 45.539C58.4047 47.2136 57.9771 49.1021 56.6944 50.6698L54.3072 53.5559L54.5209 57.2971C54.6278 59.328 53.8796 61.0739 52.4544 62.1428C51.5992 62.7486 50.6016 63.0692 49.5327 63.0692ZM34.8885 47.2849L37.2758 50.171C38.0953 51.133 38.5585 52.6651 38.4872 53.9122L38.2734 57.6534L41.7652 56.2638C42.941 55.8006 44.5088 55.8006 45.6846 56.2638L49.1764 57.6534L48.9626 53.9122C48.8913 52.6651 49.3545 51.1686 50.174 50.171L52.5613 47.2849L48.9269 46.3585C47.7155 46.0378 46.4328 45.1114 45.7558 44.0781L43.7605 40.9427L41.7296 44.0781C41.0526 45.1471 39.7699 46.0735 38.5585 46.3941L34.8885 47.2849Z" fill="#FFD200"/>
</svg>
