<svg width="85" height="85" viewBox="0 0 85 85" fill="none" xmlns="http://www.w3.org/2000/svg">
<path d="M28.3333 20.3646C26.8812 20.3646 25.677 19.1604 25.677 17.7083V7.08333C25.677 5.63125 26.8812 4.42708 28.3333 4.42708C29.7853 4.42708 30.9895 5.63125 30.9895 7.08333V17.7083C30.9895 19.1604 29.7853 20.3646 28.3333 20.3646Z" fill="#292D32"/>
<path d="M56.6667 20.3646C55.2147 20.3646 54.0105 19.1604 54.0105 17.7083V7.08333C54.0105 5.63125 55.2147 4.42708 56.6667 4.42708C58.1188 4.42708 59.323 5.63125 59.323 7.08333V17.7083C59.323 19.1604 58.1188 20.3646 56.6667 20.3646Z" fill="#292D32"/>
<path d="M51.9916 80.5729H28.3333C15.4062 80.5729 7.96875 73.1354 7.96875 60.2083V30.1042C7.96875 17.1771 15.4062 9.73958 28.3333 9.73958H56.6667C69.5938 9.73958 77.0312 17.1771 77.0312 30.1042V48.2729C77.0312 49.3 76.4291 50.2208 75.5437 50.6812C74.6229 51.1062 73.525 50.9999 72.7459 50.3624C67.15 45.8999 58.5438 45.9 52.948 50.4687C49.123 53.4792 46.9625 57.9771 46.9625 62.9C46.9625 65.8042 47.7417 68.6375 49.2646 71.0813C50.4333 72.9938 51.8854 74.5876 53.5854 75.7918C54.5063 76.4647 54.9313 77.6687 54.5771 78.7666C54.1521 79.8291 53.1604 80.5729 51.9916 80.5729ZM28.3333 15.0521C18.2042 15.0521 13.2812 19.975 13.2812 30.1042V60.2083C13.2812 70.3375 18.2042 75.2604 28.3333 75.2604H45.6521C45.298 74.8 44.9791 74.3043 44.6958 73.8084C42.6771 70.5501 41.6146 66.7604 41.6146 62.8646C41.6146 56.3125 44.5188 50.2917 49.6188 46.2896C55.675 41.3667 64.6354 40.3041 71.7188 43.5625V30.1042C71.7188 19.975 66.7958 15.0521 56.6667 15.0521H28.3333Z" fill="#292D32"/>
<path d="M46.0417 41.6146H24.7917C23.3397 41.6146 22.1355 40.4104 22.1355 38.9583C22.1355 37.5062 23.3397 36.3021 24.7917 36.3021H46.0417C47.4938 36.3021 48.698 37.5062 48.698 38.9583C48.698 40.4104 47.4938 41.6146 46.0417 41.6146Z" fill="#292D32"/>
<path d="M34.0709 59.3229H24.7917C23.3397 59.3229 22.1355 58.1188 22.1355 56.6667C22.1355 55.2146 23.3397 54.0104 24.7917 54.0104H34.0709C35.523 54.0104 36.7271 55.2146 36.7271 56.6667C36.7271 58.1188 35.5584 59.3229 34.0709 59.3229Z" fill="#292D32"/>
<path d="M62.8645 84.1145C58.3312 84.1145 54.0457 82.6978 50.4332 80.0769C48.1666 78.4478 46.2187 76.3229 44.6957 73.8083C42.677 70.55 41.6145 66.7603 41.6145 62.8645C41.6145 56.3124 44.5187 50.2916 49.6187 46.2895C56.9854 40.3041 68.602 40.2686 76.0395 46.1832C81.1749 50.2207 84.1145 56.3124 84.1145 62.8645C84.1145 66.7603 83.052 70.55 81.0333 73.8083C79.8999 75.7563 78.4478 77.4562 76.7832 78.8374C72.9936 82.2374 68.0353 84.1145 62.8645 84.1145ZM62.8645 46.927C59.252 46.927 55.7103 48.1665 52.9124 50.4332C49.0874 53.4436 46.927 57.9416 46.927 62.8645C46.927 65.7687 47.7061 68.602 49.2291 71.0457C50.3978 72.9582 51.8499 74.552 53.5499 75.7562C56.277 77.7395 59.4999 78.802 62.8645 78.802C66.7958 78.802 70.4083 77.4208 73.3125 74.8353C74.5875 73.7728 75.6145 72.5333 76.4645 71.0812C77.9874 68.602 78.802 65.7687 78.802 62.8645C78.802 57.9416 76.6062 53.4081 72.7458 50.3623C69.9125 48.0956 66.5124 46.927 62.8645 46.927Z" fill="#292D32"/>
<path d="M62.8647 74.375C61.4126 74.375 60.2084 73.1708 60.2084 71.7188C60.2084 68.3188 57.4105 65.5208 54.0105 65.5208C52.5584 65.5208 51.3542 64.3167 51.3542 62.8646C51.3542 61.4125 52.5584 60.2083 54.0105 60.2083C57.4105 60.2083 60.2084 57.4104 60.2084 54.0104C60.2084 52.5583 61.4126 51.3542 62.8647 51.3542C64.3167 51.3542 65.5209 52.5583 65.5209 54.0104C65.5209 57.4104 68.3188 60.2083 71.7188 60.2083C73.1709 60.2083 74.3751 61.4125 74.3751 62.8646C74.3751 64.3167 73.1709 65.5208 71.7188 65.5208C68.3188 65.5208 65.5209 68.3188 65.5209 71.7188C65.5209 73.1708 64.3167 74.375 62.8647 74.375ZM61.3418 62.8646C61.873 63.325 62.4042 63.8208 62.8647 64.3875C63.3251 63.8562 63.8209 63.325 64.3876 62.8646C63.8563 62.4042 63.3251 61.9084 62.8647 61.3417C62.4042 61.9084 61.9084 62.4042 61.3418 62.8646Z" fill="#FFD200"/>
</svg>
