<svg width="11" height="10" viewBox="0 0 11 10" fill="none" xmlns="http://www.w3.org/2000/svg">
<path d="M10.0392 4.15724C9.50811 2.13117 8.19797 0.6604 6.92446 0.6604C6.82217 0.6604 6.71998 0.669898 6.62043 0.688678C6.56397 0.699255 6.51459 0.734657 6.48404 0.786031C6.45359 0.83773 6.44499 0.900546 6.46047 0.95926L6.72261 1.95956C6.74791 2.05616 6.83522 2.12146 6.92598 2.11703L6.94682 2.1166C7.41912 2.1166 8.28226 2.87168 8.72227 4.54989C8.73968 4.61649 8.75617 4.68459 8.77205 4.75561C8.27811 4.49485 7.68885 4.43451 7.15525 4.59306C5.95144 4.95236 5.24624 6.28919 5.58276 7.57313C5.85553 8.61348 6.75266 9.34028 7.76443 9.34028C7.97053 9.34028 8.17632 9.30995 8.37615 9.25027C9.16998 9.01357 9.76682 8.31052 10.0568 7.27104C10.3185 6.33323 10.312 5.19834 10.0392 4.15724Z" fill="#FFD200"/>
<path d="M1.67486 0.660889C1.57277 0.660889 1.47049 0.670171 1.37103 0.688951C1.31467 0.699312 1.2652 0.734929 1.23474 0.786304C1.20429 0.838003 1.19569 0.900818 1.21107 0.959532L1.47332 1.95983C1.49861 2.05643 1.58431 2.12173 1.67668 2.1173L1.69732 2.11687C2.16962 2.11687 3.03286 2.87195 3.47288 4.55017C3.49038 4.61719 3.50687 4.68529 3.52266 4.75588C3.02851 4.49512 2.43946 4.43479 1.90585 4.59334C0.702249 4.95264 -0.0031563 6.28947 0.33356 7.57341C0.606333 8.61375 1.50347 9.34055 2.51524 9.34055C2.72133 9.34055 2.92713 9.31023 3.12705 9.25054C3.92079 9.01385 4.51763 8.31079 4.8077 7.27131C5.06935 6.3335 5.06287 5.1985 4.79 4.1573C4.25862 2.13144 2.94868 0.660889 1.67486 0.660889Z" fill="#FFD200"/>
</svg>
