<svg width="49" height="49" viewBox="0 0 49 49" fill="none" xmlns="http://www.w3.org/2000/svg">
<path d="M38.7917 27.2769H4.08337C3.24629 27.2769 2.55212 26.5827 2.55212 25.7456C2.55212 24.9085 3.24629 24.2144 4.08337 24.2144H38.7917C39.6288 24.2144 40.323 24.9085 40.323 25.7456C40.323 26.5827 39.6288 27.2769 38.7917 27.2769Z" fill="#FFD200"/>
<path d="M31.0741 44.4064H11.8009C4.79802 44.4064 2.55212 42.181 2.55212 35.2597V20.9885C2.55212 15.4964 3.79759 12.2501 10.1268 11.8826C10.6576 11.8622 11.2089 11.8418 11.8009 11.8418H31.0741C38.0771 11.8418 40.323 14.0672 40.323 20.9885V35.5864C40.2413 42.2626 37.9954 44.4064 31.0741 44.4064ZM11.8009 14.9043C11.2497 14.9043 10.7393 14.9247 10.2697 14.9451C6.6151 15.1697 5.61462 15.9455 5.61462 20.9885V35.2597C5.61462 40.4864 6.47218 41.3439 11.8009 41.3439H31.0741C36.3416 41.3439 37.1992 40.5272 37.2605 35.566V20.9885C37.2605 15.7618 36.4029 14.9043 31.0741 14.9043H11.8009V14.9043Z" fill="#FFD200"/>
<path d="M38.7917 37.1175C38.4038 37.1175 38.0159 36.9746 37.7504 36.7092C37.4442 36.4233 37.2605 36.015 37.2605 35.5863V20.9883C37.2605 15.7617 36.4029 14.9042 31.0741 14.9042H11.8009C11.2497 14.9042 10.7393 14.9246 10.2697 14.945C9.86135 14.9654 9.45292 14.8021 9.14667 14.5163C8.84042 14.2304 8.67712 13.8221 8.67712 13.3933C8.75879 6.7375 11.0047 4.59375 17.9259 4.59375H37.1991C44.2021 4.59375 46.448 6.81917 46.448 13.7404V28.0117C46.448 33.5038 45.2025 36.75 38.8733 37.1175C38.8529 37.1175 38.8121 37.1175 38.7917 37.1175ZM11.8009 11.8417H31.0741C38.0771 11.8417 40.323 14.0671 40.323 20.9883V33.8917C42.6913 33.4629 43.3855 32.2379 43.3855 28.0117V13.7404C43.3855 8.51375 42.5279 7.65625 37.1991 7.65625H17.9259C13.2709 7.65625 12.0664 8.28917 11.8009 11.8417Z" fill="#FFD200"/>
<path d="M14.2106 37.8936H10.6989C9.86177 37.8936 9.1676 37.1994 9.1676 36.3623C9.1676 35.5252 9.86177 34.8311 10.6989 34.8311H14.2106C15.0477 34.8311 15.7418 35.5252 15.7418 36.3623C15.7418 37.1994 15.0681 37.8936 14.2106 37.8936Z" fill="#FFD200"/>
<path d="M25.6227 37.8936H18.5994C17.7623 37.8936 17.0681 37.1994 17.0681 36.3623C17.0681 35.5252 17.7623 34.8311 18.5994 34.8311H25.6227C26.4598 34.8311 27.154 35.5252 27.154 36.3623C27.154 37.1994 26.4802 37.8936 25.6227 37.8936Z" fill="#FFD200"/>
</svg>
