<svg width="14" height="15" viewBox="0 0 14 15" fill="none" xmlns="http://www.w3.org/2000/svg">
<path fill-rule="evenodd" clip-rule="evenodd" d="M0.000270024 1.3C0.000270024 0.58203 0.5823 0 1.30027 0H12.7003C13.4182 0 14.0003 0.58203 14.0003 1.3C14.0003 2.01797 13.4182 2.6 12.7003 2.6H1.30027C0.582299 2.6 0.000270024 2.01797 0.000270024 1.3ZM0 7.49727C0 6.7793 0.58203 6.19727 1.3 6.19727H12.7C13.418 6.19727 14 6.7793 14 7.49727C14 8.21524 13.418 8.79727 12.7 8.79727H1.3C0.582029 8.79727 0 8.21524 0 7.49727ZM1.3 12.3945C0.58203 12.3945 0 12.9766 0 13.6945C0 14.4125 0.58203 14.9945 1.3 14.9945H6.7C7.41797 14.9945 8 14.4125 8 13.6945C8 12.9766 7.41797 12.3945 6.7 12.3945H1.3Z" fill="#FFD200"/>
</svg>
