<svg width="49" height="49" viewBox="0 0 49 49" fill="none" xmlns="http://www.w3.org/2000/svg">
<path d="M21.5193 44.7943C21.0497 44.7943 20.6005 44.5902 20.2943 44.1819L18.2322 41.4256C17.8034 40.8539 17.2318 40.5272 16.6193 40.4864C16.0068 40.4456 15.3943 40.7314 14.9043 41.2419C11.9438 44.4064 9.69804 44.141 8.61596 43.7327C7.51346 43.3039 5.65552 41.8951 5.65552 37.3626V14.3735C5.65552 5.30851 8.26885 2.55225 16.8234 2.55225H32.2381C40.7926 2.55225 43.406 5.30851 43.406 14.3735V23.071C43.406 23.9081 42.7118 24.6022 41.8747 24.6022C41.0376 24.6022 40.3435 23.9081 40.3435 23.071V14.3735C40.3435 7.0031 39.0572 5.61475 32.2381 5.61475H16.8234C10.0043 5.61475 8.71802 7.0031 8.71802 14.3735V37.3626C8.71802 39.5064 9.24885 40.6906 9.73885 40.8743C10.1064 41.0172 11.1068 40.8131 12.6585 39.1593C13.7814 37.9752 15.2514 37.3422 16.7826 37.4239C18.2935 37.5056 19.7226 38.3019 20.6822 39.5881L22.7647 42.3443C23.2751 43.0181 23.1322 43.9777 22.4585 44.4881C22.1522 44.7127 21.8256 44.7943 21.5193 44.7943Z" fill="#FFD200"/>
<path d="M37.1584 45.2229C32.7075 45.2229 29.0938 41.6092 29.0938 37.1584C29.0938 32.7075 32.7075 29.0938 37.1584 29.0938C41.6092 29.0938 45.2229 32.7075 45.2229 37.1584C45.2229 41.6092 41.6092 45.2229 37.1584 45.2229ZM37.1584 32.1562C34.4021 32.1562 32.1562 34.4021 32.1562 37.1584C32.1562 39.9146 34.4021 42.1604 37.1584 42.1604C39.9146 42.1604 42.1604 39.9146 42.1604 37.1584C42.1604 34.4021 39.9146 32.1562 37.1584 32.1562Z" fill="#FFD200"/>
<path d="M44.9166 46.4477C44.5286 46.4477 44.1407 46.3048 43.8345 45.9985L41.7928 43.9569C41.2007 43.3648 41.2007 42.3848 41.7928 41.7927C42.3849 41.2006 43.3649 41.2006 43.957 41.7927L45.9986 43.8344C46.5907 44.4264 46.5907 45.4064 45.9986 45.9985C45.6924 46.3048 45.3045 46.4477 44.9166 46.4477Z" fill="#FFD200"/>
<path d="M32.6667 15.8228H16.3334C15.4963 15.8228 14.8021 15.1286 14.8021 14.2915C14.8021 13.4544 15.4963 12.7603 16.3334 12.7603H32.6667C33.5038 12.7603 34.198 13.4544 34.198 14.2915C34.198 15.1286 33.5038 15.8228 32.6667 15.8228Z" fill="#FFD200"/>
<path d="M30.625 23.9897H18.375C17.5379 23.9897 16.8438 23.2956 16.8438 22.4585C16.8438 21.6214 17.5379 20.9272 18.375 20.9272H30.625C31.4621 20.9272 32.1563 21.6214 32.1563 22.4585C32.1563 23.2956 31.4621 23.9897 30.625 23.9897Z" fill="#FFD200"/>
</svg>
