<svg width="22" height="22" viewBox="0 0 22 22" fill="none" xmlns="http://www.w3.org/2000/svg">
<path fill-rule="evenodd" clip-rule="evenodd" d="M15.7233 13.8365H14.7296L14.3774 13.4969C15.6101 12.0629 16.3522 10.2013 16.3522 8.1761C16.3522 3.66038 12.6918 0 8.1761 0C3.66038 0 0 3.66038 0 8.1761C0 12.6918 3.66038 16.3522 8.1761 16.3522C10.2013 16.3522 12.0629 15.6101 13.4969 14.3774L13.8365 14.7296V15.7233L20.1258 22L22 20.1258L15.7233 13.8365ZM8.17606 13.8365C5.04399 13.8365 2.51569 11.3082 2.51569 8.1761C2.51569 5.04402 5.04399 2.51572 8.17606 2.51572C11.3081 2.51572 13.8364 5.04402 13.8364 8.1761C13.8364 11.3082 11.3081 13.8365 8.17606 13.8365Z" fill="#FFFAFA"/>
</svg>
